<svg version="1.1" id="Capa_1" xmlns="http://www.w3.org/2000/svg" xmlns:xlink="http://www.w3.org/1999/xlink" x="0px" y="0px" viewBox="0 0 1200 1200" enable-background="new 0 0 1200 1200" xml:space="preserve">
<g>
	<path fill="#494949" d="M525.187,1017.358c-0.612-37.69,5.258-76.027,15.421-112.161c22.858-81.266,65.069-155.501,98.567-232.99&#10;&#9;&#9;c33.498-77.489,58.711-162.426,44.661-245.668C666.02,320.99,588.16,235.517,503.584,169.906&#10;&#9;&#9;c-24.035-18.646-69.086-51.801-67.46-86.953c2.183-47.202,72.748-32.87,104.491-22.513&#10;&#9;&#9;c113.163,36.921,200.983,135.964,236.094,249.702s20.554,239.624-27.972,348.317c-51.039,114.321-138.761,214.469-159.944,337.862&#10;&#9;&#9;c-8.831,51.444-5.781,105.864-26.715,153.679C536.827,1110.497,525.951,1064.432,525.187,1017.358z" style="fill: rgb(221, 115, 70);"/>
	<path fill="#494949" d="M477.16,967.696c-67.502-38.531-101.09-121.21-98.032-198.875s37.236-150.87,78.63-216.656&#10;&#9;&#9;c21.542-34.236,46.294-73.747,33.788-112.211c-11.033-33.935-56.799-79.041-3.854-97.495&#10;&#9;&#9;c38.744-13.504,86.217,14.952,104.238,48.566c23.416,43.68,16.02,98.048-3.277,143.697c-19.298,45.649-49.307,85.903-72.043,129.94&#10;&#9;&#9;C468.928,757.018,454.712,866.211,477.16,967.696z" style="fill: rgb(221, 115, 70);"/>
	<path fill="#494949" d="M647.439,1038.791c9.993-96.518,67.021-185.268,111.549-269.203&#10;&#9;&#9;c22.433-42.285,68.106-157.918,131.216-148.931c32.854,4.678,44.374,47.045,40.44,79.996&#10;&#9;&#9;c-9.68,81.073-64.523,148.738-119.405,209.192c-54.881,60.453-114.074,122.135-136.194,200.727&#10;&#9;&#9;C650.226,1092.646,644.606,1066.151,647.439,1038.791z" style="fill: rgb(221, 115, 70);"/>
	<path fill="#494949" d="M306.078,740.247c-3.399-21.23-26.828-45.801-32.329-69.381c-6.3-27-6.781-55.468-1.545-82.687&#10;&#9;&#9;c9.746-50.667,41.069-107.208,98.039-112.342c12.412-1.118,26.476,1.185,34.011,11.111c7.436,9.796,5.933,24.102-0.02,34.864&#10;&#9;&#9;c-5.953,10.762-15.546,18.933-24.438,27.43C328.467,598.285,294.855,670.149,306.078,740.247z" style="fill: rgb(221, 115, 70);"/>
</g>
</svg>